<svg width="326" height="35" viewBox="0 0 326 35" fill="none" xmlns="http://www.w3.org/2000/svg">
<path fill-rule="evenodd" clip-rule="evenodd" d="M91.659 30.25L87.1294 19.85H80.8068V30.25H77.7682V4.25H87.7521C93.0755 4.25 96 7.74221 96 12.0501C96 15.5302 93.9017 18.4768 90.4415 19.4813L95.1316 30.25H91.659ZM80.8068 16.8166H87.7521C91.4071 16.8166 92.9614 14.6825 92.9614 12.0501C92.9614 9.41746 91.4071 7.2834 87.7521 7.2834H80.8068V16.8166ZM58.6681 30.25V12.9167H71.2567V15.5168H61.7067V20.2835H69.5203V22.8834H61.7067V27.6499H70.8225V30.25H58.6681ZM45.6455 30.25L41.3045 20.2833H44.3433L47.3819 27.6499L50.4205 20.2833H53.4591L49.1181 30.25H45.6455ZM24.3751 30.25V12.9167H36.9638V15.5168H27.4137V20.2835H35.2273V22.8834H27.4137V27.6499H36.9638V30.25H24.3751ZM14.391 30.25L9.8615 19.85H3.53885V30.25H0.5V4.25H10.4844C15.8076 4.25 18.7317 7.74221 18.7317 12.0501C18.7317 15.5302 16.6335 18.4768 13.1735 19.4813L17.8639 30.25H14.391ZM3.53885 16.8166H10.4844C14.1394 16.8166 15.6934 14.6825 15.6934 12.0501C15.6934 9.41746 14.1394 7.2834 10.4844 7.2834H3.53885V16.8166Z" fill="white" style="fill:white;fill-opacity:1;"/>
<g clip-path="url(#clip0_5_298)">
<path d="M148.977 9.25884L143.021 4.17727L137.066 9.25884L135.042 6.80765L143.021 0L151 6.80765L148.977 9.25884Z" fill="white" style="fill:white;fill-opacity:1;"/>
<path d="M143.021 34.5C138.907 34.5 135.572 31.1095 135.572 26.9272C135.572 22.745 138.907 19.3545 143.021 19.3545C147.135 19.3545 150.47 22.745 150.47 26.9272C150.463 31.107 147.132 34.4933 143.021 34.5ZM143.021 22.5558C140.646 22.5558 138.72 24.5136 138.72 26.9281C138.72 29.3426 140.646 31.3004 143.021 31.3004C145.396 31.3004 147.322 29.3426 147.322 26.9281C147.319 24.5136 145.395 22.5583 143.021 22.5558Z" fill="white" style="fill:white;fill-opacity:1;"/>
<path d="M148.977 18.1535L143.021 13.0719L137.066 18.1535L135.042 15.7023L143.021 8.89462L151 15.7023L148.977 18.1535Z" fill="white" style="fill:white;fill-opacity:1;"/>
<path d="M131.568 22.1399H117.5V25.3237H131.568V22.1399Z" fill="white" style="fill:white;fill-opacity:1;"/>
<path d="M131.568 12.5902H117.5V15.774H131.568V12.5902Z" fill="white" style="fill:white;fill-opacity:1;"/>
<path d="M131.568 3.03711H117.5V6.2209H131.568V3.03711Z" fill="white" style="fill:white;fill-opacity:1;"/>
</g>
<defs>
<clipPath id="clip0_5_298">
<rect width="33.5" height="34.5" fill="white" style="fill:white;fill-opacity:1;" transform="translate(117.5)"/>
</clipPath>
</defs>
</svg>
