<svg width="151" height="35" viewBox="0 0 151 35" fill="none" xmlns="http://www.w3.org/2000/svg">
<path fill-rule="evenodd" clip-rule="evenodd" d="M91.159 30.25L86.6295 19.85H80.3068V30.25H77.2682V4.25H87.2521C92.5755 4.25 95.5 7.74221 95.5 12.0501C95.5 15.5302 93.4017 18.4768 89.9415 19.4813L94.6316 30.25H91.159ZM80.3068 16.8166H87.2521C90.9071 16.8166 92.4614 14.6825 92.4614 12.0501C92.4614 9.41746 90.9071 7.2834 87.2521 7.2834H80.3068V16.8166ZM58.1681 30.25V12.9167H70.7567V15.5168H61.2067V20.2835H69.0203V22.8834H61.2067V27.6499H70.3225V30.25H58.1681ZM45.1455 30.25L40.8045 20.2833H43.8433L46.8819 27.6499L49.9205 20.2833H52.9591L48.6181 30.25H45.1455ZM23.8751 30.25V12.9167H36.4638V15.5168H26.9137V20.2835H34.7273V22.8834H26.9137V27.6499H36.4638V30.25H23.8751ZM13.891 30.25L9.3615 19.85H3.03885V30.25H0V4.25H9.98436C15.3076 4.25 18.2317 7.74221 18.2317 12.0501C18.2317 15.5302 16.1335 18.4768 12.6735 19.4813L17.3639 30.25H13.891ZM3.03885 16.8166H9.98436C13.6394 16.8166 15.1934 14.6825 15.1934 12.0501C15.1934 9.41746 13.6394 7.2834 9.98436 7.2834H3.03885V16.8166Z" fill="white" style="fill:white;fill-opacity:1;"/>
<g clip-path="url(#clip0_232_626)">
<path d="M148.477 9.25884L142.521 4.17727L136.566 9.25884L134.542 6.80765L142.521 0L150.5 6.80765L148.477 9.25884Z" fill="white" style="fill:white;fill-opacity:1;"/>
<path d="M142.521 34.5C138.407 34.5 135.072 31.1095 135.072 26.9272C135.072 22.745 138.407 19.3545 142.521 19.3545C146.635 19.3545 149.97 22.745 149.97 26.9272C149.963 31.107 146.632 34.4933 142.521 34.5ZM142.521 22.5558C140.146 22.5558 138.22 24.5136 138.22 26.9281C138.22 29.3426 140.146 31.3004 142.521 31.3004C144.896 31.3004 146.822 29.3426 146.822 26.9281C146.819 24.5136 144.895 22.5583 142.521 22.5558Z" fill="white" style="fill:white;fill-opacity:1;"/>
<path d="M148.477 18.1535L142.521 13.0719L136.566 18.1535L134.542 15.7023L142.521 8.89462L150.5 15.7023L148.477 18.1535Z" fill="white" style="fill:white;fill-opacity:1;"/>
<path d="M131.068 22.1399H117V25.3237H131.068V22.1399Z" fill="white" style="fill:white;fill-opacity:1;"/>
<path d="M131.068 12.5902H117V15.774H131.068V12.5902Z" fill="white" style="fill:white;fill-opacity:1;"/>
<path d="M131.068 3.03711H117V6.2209H131.068V3.03711Z" fill="white" style="fill:white;fill-opacity:1;"/>
</g>
<defs>
<clipPath id="clip0_232_626">
<rect width="33.5" height="34.5" fill="white" style="fill:white;fill-opacity:1;" transform="translate(117)"/>
</clipPath>
</defs>
</svg>
