<svg width="76" height="78" viewBox="0 0 76 78" fill="none" xmlns="http://www.w3.org/2000/svg">
<g clip-path="url(#clip0_3_1438)">
<path d="M71.44 21.5387L58.0169 10.1972L44.5957 21.5387L40.0339 16.0679L58.0169 0.874023L76 16.0679L71.44 21.5387Z" fill="white" style="fill:white;fill-opacity:1;"/>
<path d="M58.0169 77.874C48.7455 77.874 41.2293 70.3068 41.2293 60.9725C41.2293 51.6381 48.7455 44.071 58.0169 44.071C67.2884 44.071 74.8046 51.6381 74.8046 60.9725C74.7898 70.3013 67.2828 77.8591 58.0169 77.874ZM58.0169 51.2159C52.6643 51.2159 48.3242 55.5854 48.3242 60.9743C48.3242 66.3633 52.6643 70.7328 58.0169 70.7328C63.3695 70.7328 67.7097 66.3633 67.7097 60.9743C67.7041 55.5854 63.3677 51.2215 58.0169 51.2159Z" fill="white" style="fill:white;fill-opacity:1;"/>
<path d="M71.44 41.3904L58.0169 30.049L44.5957 41.3904L40.0339 35.9197L58.0169 20.7258L76 35.9197L71.44 41.3904Z" fill="white" style="fill:white;fill-opacity:1;"/>
<path d="M32.2055 50.2877H0.5V57.3935H32.2055V50.2877Z" fill="white" style="fill:white;fill-opacity:1;"/>
<path d="M32.2055 28.9738H0.5V36.0797H32.2055V28.9738Z" fill="white" style="fill:white;fill-opacity:1;"/>
<path d="M32.2055 7.65249H0.5V14.7584H32.2055V7.65249Z" fill="white" style="fill:white;fill-opacity:1;"/>
</g>
<defs>
<clipPath id="clip0_3_1438">
<rect width="75.5" height="77" fill="white" style="fill:white;fill-opacity:1;" transform="translate(0.5 0.874023)"/>
</clipPath>
</defs>
</svg>
