<svg width="161" height="45" viewBox="0 0 161 45" fill="none" xmlns="http://www.w3.org/2000/svg">
<path fill-rule="evenodd" clip-rule="evenodd" d="M153.228 44.1258L145.639 26.7243H135.046V44.1258H129.956V0.62207H146.683C155.601 0.62207 160.501 6.46532 160.501 13.6734C160.501 19.4964 156.986 24.4266 151.188 26.1074L159.046 44.1258H153.228ZM135.046 21.6488H146.683C152.806 21.6488 155.41 18.078 155.41 13.6734C155.41 9.26838 152.806 5.69762 146.683 5.69762H135.046V21.6488ZM97.9552 44.1258V15.1233H119.046V19.4739H103.046V27.4497H116.137V31.7999H103.046V39.7752H118.319V44.1258H97.9552ZM76.1369 44.1258L68.864 27.4493H73.9553L79.0461 39.7752L84.137 27.4493H89.2278L81.955 44.1258H76.1369ZM40.5005 44.1258V15.1233H61.5916V19.4739H45.5913V27.4497H58.6823V31.7999H45.5913V39.7752H61.5916V44.1258H40.5005ZM23.7731 44.1258L16.1843 26.7243H5.59131V44.1258H0.5V0.62207H17.2278C26.1464 0.62207 31.0455 6.46532 31.0455 13.6734C31.0455 19.4964 27.5302 24.4266 21.7332 26.1074L29.5916 44.1258H23.7731ZM5.59131 21.6488H17.2278C23.3514 21.6488 25.9551 18.078 25.9551 13.6734C25.9551 9.26838 23.3514 5.69762 17.2278 5.69762H5.59131V21.6488Z" fill="white" style="fill:white;fill-opacity:1;"/>
</svg>
